<?xml version="1.0" encoding="UTF-8" standalone="no"?><!DOCTYPE svg PUBLIC "-//W3C//DTD SVG 1.1//EN" "http://www.w3.org/Graphics/SVG/1.1/DTD/svg11.dtd"><svg width="100%" height="100%" viewBox="0 0 800 215" version="1.1" xmlns="http://www.w3.org/2000/svg" xmlns:xlink="http://www.w3.org/1999/xlink" xml:space="preserve" xmlns:serif="http://www.serif.com/" style="fill-rule:evenodd;clip-rule:evenodd;stroke-linejoin:round;stroke-miterlimit:2;"><rect id="Artboard2" x="0" y="-0" width="800" height="214.503" style="fill:none;"/><clipPath id="_clip1"><rect x="0" y="-0" width="800" height="214.503"/></clipPath><g clip-path="url(#_clip1)"><g><g><path d="M48.35,183.373c7.253,-0 12.383,-0.708 15.39,-2.123c3.007,-1.415 4.511,-4.157 4.511,-8.225c-0,-3.184 -1.946,-5.971 -5.838,-8.359c-3.891,-2.388 -9.817,-5.085 -17.777,-8.092c-6.192,-2.3 -11.808,-4.688 -16.85,-7.165c-5.041,-2.476 -9.331,-5.439 -12.869,-8.889c-3.537,-3.449 -6.279,-7.562 -8.225,-12.338c-1.946,-4.776 -2.919,-10.525 -2.919,-17.247c0,-13.09 4.865,-23.438 14.594,-31.045c9.729,-7.606 23.084,-11.409 40.066,-11.409c8.491,-0 16.628,0.751 24.411,2.255c7.784,1.504 13.975,3.14 18.574,4.909l-6.899,30.779c-4.599,-1.592 -9.596,-3.007 -14.991,-4.245c-5.396,-1.238 -11.454,-1.858 -18.176,-1.858c-12.383,0 -18.574,3.45 -18.574,10.349c0,1.592 0.265,3.007 0.796,4.245c0.531,1.238 1.592,2.432 3.184,3.582c1.592,1.15 3.759,2.394 6.501,3.732c2.742,1.337 6.236,2.808 10.481,4.411c8.668,3.212 15.832,6.378 21.493,9.498c5.66,3.121 10.127,6.49 13.399,10.108c3.273,3.618 5.572,7.633 6.899,12.046c1.327,4.413 1.99,9.531 1.99,15.354c0,13.768 -5.174,24.182 -15.522,31.242c-10.349,7.061 -24.986,10.591 -43.914,10.591c-12.383,-0 -22.687,-1.061 -30.912,-3.184c-8.226,-2.123 -13.93,-3.892 -17.115,-5.307l6.634,-32.106c6.722,2.653 13.621,4.732 20.696,6.235c7.076,1.504 14.063,2.256 20.962,2.256Zm404.909,-41.659c0,10.968 -1.592,21.007 -4.776,30.117c-3.184,9.11 -7.783,16.893 -13.798,23.349c-6.014,6.457 -13.222,11.454 -21.625,14.992c-8.402,3.538 -17.822,5.307 -28.259,5.307c-10.259,-0 -19.591,-1.769 -27.993,-5.307c-8.402,-3.538 -15.611,-8.535 -21.625,-14.992c-6.015,-6.456 -10.702,-14.239 -14.063,-23.349c-3.361,-9.11 -5.042,-19.149 -5.042,-30.117c0,-10.967 1.725,-20.961 5.174,-29.983c3.45,-9.021 8.226,-16.716 14.329,-23.085c6.103,-6.368 13.355,-11.321 21.758,-14.859c8.402,-3.537 17.556,-5.306 27.462,-5.306c10.083,-0 19.326,1.769 27.728,5.306c8.403,3.538 15.611,8.491 21.626,14.859c6.014,6.369 10.702,14.064 14.063,23.085c3.361,9.022 5.041,19.016 5.041,29.983Zm286.037,-73.233c11.675,-0 21.404,1.326 29.187,3.98c7.783,2.653 14.019,6.456 18.706,11.409c4.688,4.953 8.005,10.968 9.951,18.043c1.946,7.076 2.918,14.948 2.918,23.616l0,82.255c-5.66,1.238 -13.532,2.698 -23.615,4.378c-10.083,1.681 -22.288,2.521 -36.617,2.521c-9.021,-0 -17.203,-0.796 -24.544,-2.388c-7.341,-1.592 -13.665,-4.201 -18.972,-7.828c-5.306,-3.626 -9.375,-8.358 -12.205,-14.195c-2.83,-5.838 -4.246,-13.002 -4.246,-21.493c0,-8.137 1.637,-15.036 4.909,-20.696c3.273,-5.661 7.651,-10.172 13.135,-13.533c5.483,-3.361 11.763,-5.793 18.839,-7.297c7.075,-1.503 14.416,-2.255 22.023,-2.255c5.13,0 9.685,0.221 13.665,0.663c3.98,0.443 7.208,1.018 9.685,1.725l-0,-3.715c-0,-6.722 -2.034,-12.117 -6.103,-16.185c-4.069,-4.069 -11.144,-6.103 -21.227,-6.103c-6.722,-0 -13.356,0.486 -19.901,1.459c-6.545,0.973 -12.205,2.344 -16.981,4.113l-5.042,-31.841c2.3,-0.707 5.174,-1.459 8.624,-2.255c3.449,-0.796 7.208,-1.504 11.277,-2.123c4.068,-0.619 8.358,-1.15 12.869,-1.592c4.51,-0.442 9.065,-0.663 13.665,-0.663Zm-574.461,143.283l-39.536,0l-0,-139.569l39.536,0l-0,139.569Zm383.946,-74.03c0,-12.736 -1.636,-21.757 -4.908,-27.064c-3.273,-5.307 -8.889,-7.96 -16.849,-7.96c-2.477,-0 -5.042,0.132 -7.695,0.398c-2.654,0.265 -5.219,0.574 -7.695,0.928l-0,107.728l-39.536,0l0,-134.792c3.361,-0.885 7.297,-1.814 11.808,-2.787c4.511,-0.972 9.287,-1.857 14.328,-2.653c5.042,-0.796 10.216,-1.415 15.523,-1.857c5.306,-0.443 10.525,-0.664 15.655,-0.664c10.083,0 18.264,1.283 24.544,3.848c6.279,2.565 11.453,5.616 15.522,9.154c5.661,-4.069 12.161,-7.253 19.502,-9.552c7.342,-2.3 14.108,-3.45 20.299,-3.45c11.144,0 20.298,1.548 27.463,4.644c7.164,3.095 12.869,7.474 17.114,13.134c4.246,5.661 7.164,12.383 8.756,20.166c1.592,7.783 2.388,16.451 2.388,26.003l0,78.806l-39.535,0l-0,-74.03c-0,-12.736 -1.637,-21.757 -4.909,-27.064c-3.273,-5.307 -8.889,-7.96 -16.849,-7.96c-2.123,-0 -5.086,0.53 -8.889,1.592c-3.803,1.061 -6.943,2.388 -9.42,3.98c1.239,4.068 2.035,8.358 2.388,12.869c0.354,4.51 0.531,9.331 0.531,14.461l0,76.152l-39.536,0l0,-74.03Zm-318.938,-15.418c3.889,-4.221 7.909,-8.618 12.06,-13.191c4.152,-4.573 8.172,-9.101 12.061,-13.586c3.889,-4.484 7.556,-8.749 11.001,-12.792c3.445,-4.044 6.405,-7.561 8.879,-10.552l47.01,0c-9.375,10.769 -18.529,21.051 -27.462,30.846c-8.933,9.796 -18.707,19.901 -29.32,30.315c5.306,4.785 10.79,10.499 16.451,17.144c5.66,6.644 11.144,13.511 16.451,20.599c5.307,7.088 10.171,14.175 14.594,21.262c4.422,7.087 8.137,13.555 11.144,19.403l-45.46,0c-2.825,-4.61 -6.047,-9.708 -9.667,-15.294c-3.619,-5.586 -7.46,-11.171 -11.521,-16.756c-4.062,-5.585 -8.344,-10.948 -12.846,-16.09c-4.503,-5.143 -8.961,-9.487 -13.375,-13.033l-0,61.173l-39.536,0l0,-199.535l39.536,-6.369l-0,116.456Zm512.637,61.853c3.891,-0 7.606,-0.089 11.144,-0.265c3.538,-0.177 6.368,-0.443 8.491,-0.796l-0,-29.984c-1.592,-0.354 -3.98,-0.707 -7.164,-1.061c-3.184,-0.354 -6.103,-0.531 -8.757,-0.531c-3.714,0 -7.208,0.221 -10.481,0.663c-3.272,0.443 -6.147,1.283 -8.623,2.521c-2.477,1.238 -4.422,2.919 -5.838,5.042c-1.415,2.122 -2.122,4.776 -2.122,7.96c-0,6.191 2.078,10.481 6.235,12.869c4.157,2.388 9.862,3.582 17.115,3.582Zm-329.553,-42.455c0,-12.205 -2.432,-21.802 -7.296,-28.789c-4.865,-6.987 -11.808,-10.481 -20.83,-10.481c-9.021,0 -16.008,3.494 -20.961,10.481c-4.953,6.987 -7.43,16.584 -7.43,28.789c-0,12.206 2.477,21.891 7.43,29.055c4.953,7.164 11.94,10.746 20.961,10.746c9.022,0 15.965,-3.582 20.83,-10.746c4.864,-7.164 7.296,-16.849 7.296,-29.055Z" style="fill:#fff;fill-rule:nonzero;"/><text x="124.316px" y="27.764px" style="font-family:'Ubuntu-Bold', 'Ubuntu', sans-serif;font-weight:700;font-size:182.656px;fill:#fff;">,</text></g></g></g></svg>